<svg t="1583657669312" class="icon" viewBox="0 0 1024 1024" version="1.1" xmlns="http://www.w3.org/2000/svg" p-id="7726" width="200" height="200"><path d="M732.23 153.32C672.41 94.59 592.76 62.76 507.66 64 337.13 66.35 198.4 207 198.4 377.61a312.91 312.91 0 0 0 142 262.5A35.29 35.29 0 0 1 356 669.9V727a17.92 17.92 0 0 0 17.87 18h120.21V510a80.64 80.64 0 1 1 35.84 0v235H648.6a17.92 17.92 0 0 0 17.92-17.62l1-57.74a35.42 35.42 0 0 1 15.72-29.22A312.74 312.74 0 0 0 825.6 376c-0.43-84.89-33.6-164-93.37-222.68zM637.44 780.8H386.56a17.92 17.92 0 0 0 0 35.84h250.88a17.92 17.92 0 0 0 0-35.84zM610.56 852.48H413.44a17.92 17.92 0 0 0 0 35.84h197.12a17.92 17.92 0 1 0 0-35.84zM583.68 924.16H440.32a17.92 17.92 0 1 0 0 35.84h143.36a17.92 17.92 0 1 0 0-35.84z" p-id="7727"></path></svg>