<svg t="1583658037993" class="icon" viewBox="0 0 1024 1024" version="1.1" xmlns="http://www.w3.org/2000/svg" p-id="9715" width="200" height="200"><path d="M883.243601 370.607183C883.243601 168.513998 711.676022 4.0796 500.7811 4.0796S118.318599 168.513998 118.318599 370.607183c0 143.734507 86.99747 268.060318 212.995917 328.085512a78.487425 78.487425 0 0 0-5.425868 102.193981 78.856628 78.856628 0 0 0-16.338798 47.806792 79.75618 79.75618 0 0 0 79.674588 79.680708h15.930838a95.625824 95.625824 0 0 0 191.251648 0h15.930838a79.75618 79.75618 0 0 0 79.674588-79.680708 78.856628 78.856628 0 0 0-16.338798-47.806792 78.487425 78.487425 0 0 0-5.425868-102.193981C796.246131 638.661381 883.243601 514.34169 883.243601 370.607183z m-478.088325 87.209609l31.882074-63.74375 35.227346 70.468971c10.831338 21.599442 46.20147 21.599442 57.032808 0l35.227346-70.468971 31.882074 63.74375v201.611793a334.488444 334.488444 0 0 1-191.251648 0v-201.611793zM373.2936 753.069684a16.126659 16.126659 0 0 1 15.930838-15.936958h223.113324a15.936957 15.936957 0 0 1 0 31.871876H389.224438a16.126659 16.126659 0 0 1-15.930838-15.934918z m127.4875 207.166168a31.886154 31.886154 0 0 1-31.861676-31.871875h63.723352a31.886154 31.886154 0 0 1-31.861676 31.871875z m111.556662-95.615625H389.224438a15.936957 15.936957 0 0 1 0-31.871875h223.113324a15.936957 15.936957 0 0 1 0 31.871875z m47.792514-232.204713v-174.606881l60.398478-120.75616a31.882074 31.882074 0 0 0-57.032808-28.512324L628.2686 379.011159l-35.227346-70.468971c-10.831338-21.599442-46.20147-21.599442-57.032808 0l-35.227346 70.468971-35.227346-70.468971c-10.831338-21.599442-46.20147-21.599442-57.032808 0L373.2936 379.011159l-35.227346-70.468971a31.882074 31.882074 0 0 0-57.032808 28.512325l60.398478 120.75616v174.60688c-95.115874-52.449378-159.369574-150.041569-159.369575-261.80833 0-166.955591 142.98998-302.783833 318.718751-302.783833S819.499851 203.653632 819.499851 370.609223c0 111.764722-64.2537 209.356913-159.369575 261.806291z" p-id="9716"></path></svg>