<svg t="1583657904101" class="icon" viewBox="0 0 1024 1024" version="1.1" xmlns="http://www.w3.org/2000/svg" p-id="8551" width="200" height="200"><path d="M471.68 579.2a21.333333 21.333333 0 0 1-16.213333-35.2l87.68-103.466667h-111.573334a21.333333 21.333333 0 0 1-16.426666-35.2L533.333333 267.093333a21.333333 21.333333 0 1 1 32.426667 27.52l-87.68 103.68h111.573333a21.333333 21.333333 0 0 1 19.2 12.16 21.333333 21.333333 0 0 1-2.986666 22.826667l-117.76 138.88a21.333333 21.333333 0 0 1-16.426667 7.04z" p-id="8552"></path><path d="M597.333333 717.653333h-170.666666a78.933333 78.933333 0 0 1-58.453334-13.653333 47.146667 47.146667 0 0 1-12.8-34.773333v-26.453334c-6.186667-3.84-12.16-8.106667-18.346666-12.586666a288.426667 288.426667 0 0 1 0-461.44 288.853333 288.853333 0 0 1 462.08 230.826666A285.44 285.44 0 0 1 682.666667 630.186667c-5.973333 4.48-11.946667 8.746667-18.133334 12.586666v25.386667a47.146667 47.146667 0 0 1-12.8 34.773333 74.026667 74.026667 0 0 1-54.4 14.72zM510.293333 153.386667a246.826667 246.826667 0 0 0-245.973333 246.186666A243.2 243.2 0 0 0 362.666667 596.053333a231.466667 231.466667 0 0 0 24.533333 16.213334 21.333333 21.333333 0 0 1 10.88 18.56v37.333333a12.373333 12.373333 0 0 0 0 4.906667 104.106667 104.106667 0 0 0 27.733333 1.92h167.893334a92.16 92.16 0 0 0 28.16-2.346667v-41.813333a21.333333 21.333333 0 0 1 10.88-18.56 231.466667 231.466667 0 0 0 24.533333-16.213334 246.186667 246.186667 0 0 0-146.986667-442.666666zM616.96 814.293333h-213.333333a21.333333 21.333333 0 0 1 0-42.666666h213.333333a21.333333 21.333333 0 0 1 0 42.666666zM616.96 899.626667h-213.333333a21.333333 21.333333 0 0 1 0-42.666667h213.333333a21.333333 21.333333 0 0 1 0 42.666667z" p-id="8553"></path></svg>